<svg xmlns="http://www.w3.org/2000/svg" version="1.1" xmlns:xlink="http://www.w3.org/1999/xlink" xmlns:svgjs="http://svgjs.dev/svgjs" width="1500" height="1500" viewBox="0 0 1500 1500"><rect width="1500" height="1500" fill="#ffffff"></rect><g transform="matrix(0.6666666666666666,0,0,0.6666666666666666,248.86715675228652,266.11075268817194)"><svg viewBox="0 0 257 248" data-background-color="#ffffff" preserveAspectRatio="xMidYMid meet" height="1447" width="1500" xmlns="http://www.w3.org/2000/svg" xmlns:xlink="http://www.w3.org/1999/xlink"><g id="tight-bounds" transform="matrix(1,0,0,1,0.2911407146623617,0.4000000000000057)"><svg viewBox="0 0 256.4177185706753 247.2" height="247.2" width="256.4177185706753"><g><svg viewBox="0 0 395.52 381.30182479200005" height="247.2" width="256.4177185706753"><g transform="matrix(1,0,0,1,0,235.65982479200002)"><svg viewBox="0 0 395.52 145.642" height="145.642" width="395.52"><g id="textblocktransform"><svg viewBox="0 0 395.52 145.642" height="145.642" width="395.52" id="textblock"><g><svg viewBox="0 0 395.52 145.642" height="145.642" width="395.52"><g transform="matrix(1,0,0,1,0,0)"><svg width="395.52" viewBox="0.75 -34.8 95.99 35.349999999999994" height="145.642" data-palette-color="#ffffff"><g class="wordmark-text-0" data-fill-palette-color="primary" id="text-0"><path d="M31.4-0.85L24.2 0.25 21.75-9.5 9.8-9.5 7.15 0 0.75-0.5 5.15-12.65 11.85-34.15 20.8-34.8 27.25-13.4 31.4-0.85ZM20.25-14.8L16.3-28.3 15.65-28.3 11.35-14.8 20.25-14.8ZM54.45 0L36.15 0 36.75-12.15 36.15-34.5 54.9-34.5 54.35-29.15 43.1-29.15 42.8-20.3 52.8-20.3 52.25-15 42.6-15 42.55-13 42.9-5.3 55-5.3 54.45 0ZM60.75-33.5L67.84-34.75 67.3-18.45 80.05-34.65 85.15-31.25 73.65-17.9 85.84-3.45 79.45 0.55 67.25-16.7 67.15-13 67.75 0 60.75 0 61.35-12.15 60.75-33.5ZM89.64-33.5L96.74-34.75 96.04-13 96.64 0 89.64 0 90.24-12.15 89.64-33.5Z" fill="#ffffff" data-fill-palette-color="primary"></path></g></svg></g></svg></g></svg></g></svg></g><g transform="matrix(1,0,0,1,137.26558949629248,0)"><svg viewBox="0 0 120.988821007415 201.27724400000002" height="201.27724400000002" width="120.988821007415"><g><svg xmlns="http://www.w3.org/2000/svg" xmlns:xlink="http://www.w3.org/1999/xlink" version="1.1" x="0" y="0" viewBox="2.337 3.136 56.340999999999994 93.729" enable-background="new 0 0 60.125 100" xml:space="preserve" height="201.27724400000002" width="120.988821007415" class="icon-icon-0" data-fill-palette-color="accent" id="icon-0"><path fill-rule="evenodd" clip-rule="evenodd" d="M6.447 75.012V85.893H54.566V75.012zM13.596 81.994A1.541 1.541 0 1 1 15.138 80.453 1.54 1.54 0 0 1 13.596 81.994M47.418 81.994A1.54 1.54 0 0 1 45.877 80.453 1.542 1.542 0 1 1 47.418 81.994M6.447 61.471V72.352H54.566V61.471zM13.596 69.115A1.54 1.54 0 1 1 13.596 66.033 1.54 1.54 0 1 1 13.596 69.115M47.418 69.115A1.54 1.54 0 1 1 47.418 66.033 1.542 1.542 0 1 1 47.418 69.115M2.337 3.136V90.487H58.678V3.136zM55.775 87.584H5.239V6.037H55.776zM9.289 96.865H6.447V91.877H9.288zM54.566 96.865H51.726V91.877H54.566zM6.448 7.185V57.967H29.649V7.185zM26.717 31.152H25.447V25.62H26.717zM31.234 7.185V57.967H54.435V7.185zM35.332 31.152H34.062V25.62H35.332z" fill="#ffffff" data-fill-palette-color="accent"></path></svg></g></svg></g><g></g></svg></g><defs></defs></svg><rect width="256.4177185706753" height="247.2" fill="none" stroke="none" visibility="hidden"></rect></g></svg></g></svg>